<?xml version="1.0" encoding="UTF-8" standalone="no"?>
<!DOCTYPE svg PUBLIC "-//W3C//DTD SVG 1.1//EN" "http://www.w3.org/Graphics/SVG/1.1/DTD/svg11.dtd">
<svg width="100%" height="100%" viewBox="0 0 122 101" version="1.1" xmlns="http://www.w3.org/2000/svg" xmlns:xlink="http://www.w3.org/1999/xlink" xml:space="preserve" xmlns:serif="http://www.serif.com/" style="fill-rule:evenodd;clip-rule:evenodd;stroke-linejoin:round;stroke-miterlimit:2;">
    <g>
        <path d="M3.34,0L119.54,0C121.38,0 122.88,1.5 122.88,3.34L122.88,80.32C122.88,82.16 121.38,83.66 119.54,83.66L3.34,83.66C1.5,83.66 0,82.16 0,80.32L0,3.34C0,1.5 1.5,0 3.34,0ZM12.57,11.68L22.39,11.68L22.39,14.24L12.57,14.24L12.57,11.68ZM27.07,38.8L12.57,38.8L12.57,36.23L27.07,36.23L27.07,38.8ZM46.8,38.81L30.02,38.81L30.02,36.23L46.8,36.23L46.8,38.81ZM75.67,38.81L49.64,38.81L49.64,36.24L75.67,36.24L75.67,38.81ZM37.25,28.07L88.4,28.07L88.4,30.6L37.25,30.6L37.25,28.07ZM25.22,28.05L34.48,28.05L34.48,30.61L25.22,30.61L25.22,28.05ZM12.57,28.05L22.39,28.05L22.39,30.61L12.57,30.61L12.57,28.05ZM34.78,22.41L12.57,22.41L12.57,19.87L34.78,19.87L34.78,22.41ZM46.8,22.42L37.54,22.42L37.54,19.86L46.8,19.86L46.8,22.42ZM75.67,22.43L49.64,22.43L49.64,19.86L75.67,19.86L75.67,22.43ZM37.25,11.68L59.46,11.68L59.46,14.22L37.25,14.22L37.25,11.68ZM25.22,11.68L34.48,11.68L34.48,14.24L25.22,14.24L25.22,11.68ZM91.2,62.08L82.1,56.98L82.1,54.06L91.2,48.96L91.2,52.32L84.86,55.48L91.2,58.74L91.2,62.08ZM92.89,64.35L96.18,46.44L98.09,46.44L94.78,64.35L92.89,64.35ZM99.48,62.1L99.48,58.76L105.83,55.56L99.48,52.32L99.48,49L108.58,54.14L108.58,57.02L99.48,62.1ZM46.29,88.27L76.59,88.27C76.67,93.51 78.83,98.2 84.68,101.9L38.2,101.9C42.88,98.51 46.31,94.39 46.29,88.27ZM61.44,72.41C63.81,72.41 65.73,74.33 65.73,76.7C65.73,79.07 63.81,80.99 61.44,80.99C59.07,80.99 57.15,79.07 57.15,76.7C57.15,74.33 59.07,72.41 61.44,72.41ZM10.05,6.29L112.84,6.29C114.47,6.29 115.79,7.62 115.79,9.24L115.79,66.76C115.79,68.38 114.46,69.71 112.84,69.71L10.05,69.71C8.43,69.71 7.1,68.38 7.1,66.76L7.1,9.24C7.09,7.62 8.42,6.29 10.05,6.29Z" style="fill:white;"/>
    </g>
</svg>
